<svg xmlns="http://www.w3.org/2000/svg" width="95.235" height="20.171" viewBox="0 0 95.235 20.171">
  <g id="Group_105604" data-name="Group 105604" transform="translate(-464 -38.382)">
    <g id="Group_105057" data-name="Group 105057" transform="translate(486.295 41.981)">
      <g id="Group_1828" data-name="Group 1828" transform="translate(0 0)">
        <path id="Path_1203" data-name="Path 1203" d="M2096.08-183.581v-.766a3,3,0,0,1-2.3.942,2.362,2.362,0,0,1-2.474-2.356,2.29,2.29,0,0,1,2.474-2.312,2.94,2.94,0,0,1,2.3.913v-1.06c0-.825-.678-1.325-1.664-1.325a2.912,2.912,0,0,0-2.106.9l-.634-1.075a4.231,4.231,0,0,1,2.989-1.149c1.575,0,2.96.662,2.96,2.577v4.712Zm0-1.62v-1.075a2.084,2.084,0,0,0-1.693-.736,1.35,1.35,0,0,0-1.517,1.281,1.348,1.348,0,0,0,1.517,1.266A2.083,2.083,0,0,0,2096.08-185.2Z" transform="translate(-2091.309 193.476)" fill="#fff"/>
        <path id="Path_1204" data-name="Path 1204" d="M2117.815-184.568v3.7h-1.546v-9.821h1.546v.972a2.838,2.838,0,0,1,2.282-1.149c1.84,0,3.151,1.384,3.151,3.725s-1.311,3.74-3.151,3.74A2.792,2.792,0,0,1,2117.815-184.568Zm3.828-2.577a2.089,2.089,0,0,0-2-2.356,2.308,2.308,0,0,0-1.826.957v2.812a2.35,2.35,0,0,0,1.826.957A2.1,2.1,0,0,0,2121.643-187.145Z" transform="translate(-2108.243 193.476)" fill="#fff"/>
        <path id="Path_1205" data-name="Path 1205" d="M2143.37-184.568v3.7h-1.546v-9.821h1.546v.972a2.837,2.837,0,0,1,2.282-1.149c1.84,0,3.15,1.384,3.15,3.725s-1.311,3.74-3.15,3.74A2.791,2.791,0,0,1,2143.37-184.568Zm3.828-2.577a2.089,2.089,0,0,0-2-2.356,2.307,2.307,0,0,0-1.826.957v2.812a2.349,2.349,0,0,0,1.826.957A2.1,2.1,0,0,0,2147.2-187.145Z" transform="translate(-2125.58 193.476)" fill="#fff"/>
        <path id="Path_1206" data-name="Path 1206" d="M2166.782-198.018a.965.965,0,0,1,.957-.957.955.955,0,0,1,.958.957.955.955,0,0,1-.958.957A.965.965,0,0,1,2166.782-198.018Zm.192,8.938v-7.112h1.546v7.112Z" transform="translate(-2142.512 198.975)" fill="#fff"/>
        <path id="Path_1207" data-name="Path 1207" d="M2182.3-183.581v-4.447c0-1.1-.559-1.472-1.428-1.472a2.342,2.342,0,0,0-1.826.957v4.962H2177.5v-7.112h1.546v.972a3.365,3.365,0,0,1,2.5-1.149,2.05,2.05,0,0,1,2.3,2.282v5.006Z" transform="translate(-2149.783 193.476)" fill="#fff"/>
        <path id="Path_1208" data-name="Path 1208" d="M2202.245-183.208l-2.9-7.112h1.65l2.076,5.33,2.076-5.33h1.664l-2.9,7.112Z" transform="translate(-2164.604 193.103)" fill="#fff"/>
        <path id="Path_1209" data-name="Path 1209" d="M2223.3-187.145a3.594,3.594,0,0,1,3.607-3.725c2.135,0,3.5,1.634,3.5,3.873v.368h-5.493a2.155,2.155,0,0,0,2.268,1.958,3.008,3.008,0,0,0,2.017-.78l.707,1.016a4.145,4.145,0,0,1-2.886,1.031A3.575,3.575,0,0,1,2223.3-187.145Zm3.607-2.459a1.962,1.962,0,0,0-2,1.885h4.005A1.9,1.9,0,0,0,2226.9-189.6Z" transform="translate(-2180.854 193.476)" fill="#fff"/>
        <path id="Path_1210" data-name="Path 1210" d="M2254.063-183.581v-4.447c0-1.1-.559-1.472-1.428-1.472a2.343,2.343,0,0,0-1.826.957v4.962h-1.546v-7.112h1.546v.972a3.367,3.367,0,0,1,2.5-1.149,2.05,2.05,0,0,1,2.3,2.282v5.006Z" transform="translate(-2198.471 193.476)" fill="#fff"/>
        <path id="Path_1211" data-name="Path 1211" d="M2272.789-188.958v-4.108h-1.178v-1.355h1.178v-1.944h1.546v1.944h1.443v1.355h-1.443v3.725c0,.486.235.839.677.839a1,1,0,0,0,.693-.251l.368,1.163a2.041,2.041,0,0,1-1.458.456A1.64,1.64,0,0,1,2272.789-188.958Z" transform="translate(-2213.633 197.204)" fill="#fff"/>
        <path id="Path_1212" data-name="Path 1212" d="M2287.411-198.018a.965.965,0,0,1,.957-.957.955.955,0,0,1,.957.957.955.955,0,0,1-.957.957A.965.965,0,0,1,2287.411-198.018Zm.192,8.938v-7.112h1.545v7.112Z" transform="translate(-2224.352 198.975)" fill="#fff"/>
        <path id="Path_1213" data-name="Path 1213" d="M2297.823-183.208l-2.9-7.112h1.649l2.076,5.33,2.077-5.33h1.664l-2.9,7.112Z" transform="translate(-2229.448 193.103)" fill="#fff"/>
      </g>
    </g>
    <path id="Path_75289" data-name="Path 75289" d="M2044.468-189.829a1.369,1.369,0,0,1-1.221-.746l-7.68-15.014-5.745,11.584,5.33-2.317a1.37,1.37,0,0,1,1.8.708,1.367,1.367,0,0,1-.709,1.8L2027.476-190a1.371,1.371,0,0,1-1.539-.311,1.367,1.367,0,0,1-.235-1.55l8.619-17.376a1.37,1.37,0,0,1,1.219-.761h.008a1.37,1.37,0,0,1,1.22.746l8.918,17.436a1.367,1.367,0,0,1-.6,1.84,1.365,1.365,0,0,1-.622.15" transform="translate(-1561.561 248.382)" fill="#126bfb"/>
  </g>
</svg>
